<svg xmlns="http://www.w3.org/2000/svg" width="22" height="27" viewBox="0 0 22 27">
    <g fill="none" fill-rule="evenodd">
        <g fill="#838E9B" fill-rule="nonzero">
            <g>
                <g>
                    <path d="M21.688 29.112V27.8L19 25.112v-6.624c0-2.07-.523-3.861-1.568-5.376-1.067-1.579-2.539-2.603-4.416-3.072v-.928c0-.555-.197-1.03-.592-1.424-.395-.395-.87-.592-1.424-.592-.555 0-1.024.197-1.408.592-.384.395-.576.87-.576 1.424v.928c-1.899.47-3.381 1.483-4.448 3.04C3.523 14.595 3 16.397 3 18.488v6.624L.312 27.8v1.312h21.376zm-5.376-2.624H5.688v-8c0-1.11.213-2.123.64-3.04.427-.917 1.035-1.632 1.824-2.144.81-.555 1.76-.832 2.848-.832 1.088 0 2.037.277 2.848.832.79.512 1.397 1.227 1.824 2.144.427.917.64 1.93.64 3.04v8zM11 33.112c.725 0 1.355-.256 1.888-.768.533-.512.8-1.13.8-1.856H8.312c0 .725.267 1.344.8 1.856s1.163.768 1.888.768z" transform="translate(-1221 -21) translate(1221 14)"/>
                </g>
            </g>
        </g>
    </g>
</svg>
